<?xml version="1.0" encoding="UTF-8"?>
<svg width="156px" height="232px" viewBox="0 0 156 232" version="1.1" xmlns="http://www.w3.org/2000/svg" xmlns:xlink="http://www.w3.org/1999/xlink">
    <!-- Generator: Sketch 43.1 (39012) - http://www.bohemiancoding.com/sketch -->
    <title>location-svgrepo-com</title>
    <desc>Created with Sketch.</desc>
    <defs></defs>
    <g id="Page-1" stroke="none" stroke-width="1" fill="none" fill-rule="evenodd">
        <g id="address-footer" transform="translate(-154.000000, 0.000000)" fill-rule="nonzero" fill="#229494">
            <g id="location-svgrepo-com" transform="translate(154.000000, 0.000000)">
                <path d="M78.009,0 C35.349,0 0.643,34.706 0.643,77.366 C0.643,89 3.163,100.181 8.131,110.606 C8.231,110.829 8.336,111.048 8.448,111.267 L66.902,224.446 C69.048,228.6 73.333,231.21 78.008,231.21 C82.684,231.21 86.969,228.601 89.114,224.446 L147.552,111.298 C147.653,111.103 147.747,110.906 147.837,110.707 C152.838,100.252 155.373,89.037 155.373,77.366 C155.375,34.706 120.669,0 78.009,0 Z M78.009,117.861 C55.68,117.861 37.514,99.695 37.514,77.366 C37.514,55.038 55.68,36.872 78.009,36.872 C100.338,36.872 118.504,55.038 118.504,77.366 C118.504,99.695 100.338,117.861 78.009,117.861 Z" id="Shape"></path>
            </g>
        </g>
    </g>
</svg>