<?xml version="1.0" encoding="UTF-8"?>
<svg width="50px" height="50px" viewBox="0 0 50 50" version="1.1" xmlns="http://www.w3.org/2000/svg" xmlns:xlink="http://www.w3.org/1999/xlink">
    <!-- Generator: Sketch 43.1 (39012) - http://www.bohemiancoding.com/sketch -->
    <title>address</title>
    <desc>Created with Sketch.</desc>
    <defs></defs>
    <g id="Page-2" stroke="none" stroke-width="1" fill="none" fill-rule="evenodd">
        <g id="Контакты" transform="translate(-449.000000, -829.000000)">
            <g id="address" transform="translate(449.000000, 829.000000)">
                <circle id="Oval-2" fill="#F6F6F6" cx="25" cy="25" r="25"></circle>
                <g id="Group" transform="translate(10.000000, 4.000000)" fill-rule="nonzero" fill="#225B94">
                    <path d="M15.2739583,0 C6.83839414,0 0,6.894825 0,15.4 C0,23.6754 14.1367427,41.0123 14.7386755,41.7459 C14.870587,41.9068125 15.0668921,42 15.2739583,42 C15.4810246,42 15.6773297,41.9068125 15.8092411,41.7459 C16.411174,41.0123 30.5479167,23.6754 30.5479167,15.4 C30.5479167,6.894825 23.7095225,0 15.2739583,0 Z M15.2739583,40.1877 C12.6614172,36.8998 1.38854167,22.3104 1.38854167,15.4 C1.39730684,7.67165 7.60894798,1.4088375 15.2739583,1.4 C22.9390555,1.4088375 29.1506098,7.67165 29.159375,15.4 C29.159375,22.309 17.8864995,36.8991 15.2739583,40.1877 Z" id="Shape"></path>
                    <path d="M24.7229844,12.7456 L15.6974635,5.7456 C15.4477864,5.551875 15.1001303,5.551875 14.8504531,5.7456 L5.82493229,12.7456 C5.52127559,12.9815875 5.46486608,13.4211875 5.69892214,13.72735 C5.83031289,13.8992 6.03321354,13.9999125 6.2484375,14 L8.33125,14 L8.33125,21.7 C8.33125,22.086575 8.64210977,22.4 9.02552083,22.4 L21.5223958,22.4 C21.9058069,22.4 22.2166667,22.086575 22.2166667,21.7 L22.2166667,14 L24.2994792,14 C24.6828902,13.999825 24.9935764,13.686225 24.9934029,13.29965 C24.9933161,13.08265 24.8934279,12.878075 24.7229844,12.7456 Z M16.6625,21 L13.8854167,21 L13.8854167,16.8 L16.6625,16.8 L16.6625,21 Z M21.5223958,12.6 C21.1389848,12.6 20.828125,12.913425 20.828125,13.3 L20.828125,21 L18.0510417,21 L18.0510417,16.1 C18.0510417,15.713425 17.7401819,15.4 17.3567708,15.4 L13.1911458,15.4 C12.8077348,15.4 12.496875,15.713425 12.496875,16.1 L12.496875,21 L9.71979167,21 L9.71979167,13.3 C9.71979167,12.913425 9.4089319,12.6 9.02552083,12.6 L8.28959375,12.6 L15.2739583,7.1834 L22.2583229,12.6 L21.5223958,12.6 Z" id="Shape"></path>
                </g>
            </g>
        </g>
    </g>
</svg>