<?xml version="1.0" encoding="UTF-8"?>
<svg width="50px" height="50px" viewBox="0 0 50 50" version="1.1" xmlns="http://www.w3.org/2000/svg" xmlns:xlink="http://www.w3.org/1999/xlink">
    <!-- Generator: Sketch 43.1 (39012) - http://www.bohemiancoding.com/sketch -->
    <title>Group 2</title>
    <desc>Created with Sketch.</desc>
    <defs></defs>
    <g id="Symbols" stroke="none" stroke-width="1" fill="none" fill-rule="evenodd">
        <g id="низ" transform="translate(-996.000000, -166.000000)">
            <g id="Group-11">
                <g id="Group-3">
                    <g id="Group-2" transform="translate(996.000000, 166.000000)">
                        <g id="низ-иконка" transform="translate(0.000000, 0.000000)" fill="#229494">
                            <ellipse id="Oval" cx="25" cy="25" rx="25" ry="25"></ellipse>
                        </g>
                        <path d="M24.2739583,4 C15.8383941,4 9,10.894825 9,19.4 C9,27.6754 23.1367427,45.0123 23.7386755,45.7459 C23.870587,45.9068125 24.0668921,46 24.2739583,46 C24.4810246,46 24.6773297,45.9068125 24.8092411,45.7459 C25.411174,45.0123 39.5479167,27.6754 39.5479167,19.4 C39.5479167,10.894825 32.7095225,4 24.2739583,4 Z M24.2739583,44.1877 C21.6614172,40.8998 10.3885417,26.3104 10.3885417,19.4 C10.3973068,11.67165 16.608948,5.4088375 24.2739583,5.4 C31.9390555,5.4088375 38.1506098,11.67165 38.159375,19.4 C38.159375,26.309 26.8864995,40.8991 24.2739583,44.1877 Z" id="Shape" fill="#942222" fill-rule="nonzero"></path>
                        <path d="M33.7229844,16.7456 L24.6974635,9.7456 C24.4477864,9.551875 24.1001303,9.551875 23.8504531,9.7456 L14.8249323,16.7456 C14.5212756,16.9815875 14.4648661,17.4211875 14.6989221,17.72735 C14.8303129,17.8992 15.0332135,17.9999125 15.2484375,18 L17.33125,18 L17.33125,25.7 C17.33125,26.086575 17.6421098,26.4 18.0255208,26.4 L30.5223958,26.4 C30.9058069,26.4 31.2166667,26.086575 31.2166667,25.7 L31.2166667,18 L33.2994792,18 C33.6828902,17.999825 33.9935764,17.686225 33.9934029,17.29965 C33.9933161,17.08265 33.8934279,16.878075 33.7229844,16.7456 Z M25.6625,25 L22.8854167,25 L22.8854167,20.8 L25.6625,20.8 L25.6625,25 Z M30.5223958,16.6 C30.1389848,16.6 29.828125,16.913425 29.828125,17.3 L29.828125,25 L27.0510417,25 L27.0510417,20.1 C27.0510417,19.713425 26.7401819,19.4 26.3567708,19.4 L22.1911458,19.4 C21.8077348,19.4 21.496875,19.713425 21.496875,20.1 L21.496875,25 L18.7197917,25 L18.7197917,17.3 C18.7197917,16.913425 18.4089319,16.6 18.0255208,16.6 L17.2895937,16.6 L24.2739583,11.1834 L31.2583229,16.6 L30.5223958,16.6 Z" id="Shape" fill="#942222" fill-rule="nonzero"></path>
                    </g>
                </g>
            </g>
        </g>
    </g>
</svg>