<?xml version="1.0" encoding="UTF-8"?>
<svg width="50px" height="50px" viewBox="0 0 50 50" version="1.1" xmlns="http://www.w3.org/2000/svg" xmlns:xlink="http://www.w3.org/1999/xlink">
    <!-- Generator: Sketch 43.1 (39012) - http://www.bohemiancoding.com/sketch -->
    <title>Group 13</title>
    <desc>Created with Sketch.</desc>
    <defs></defs>
    <g id="Page-1" stroke="none" stroke-width="1" fill="none" fill-rule="evenodd">
        <g id="Group-13">
            <g id="Group-6" fill="#229494">
                <g id="низ-иконка">
                    <ellipse id="Oval" cx="25" cy="25" rx="25" ry="25"></ellipse>
                </g>
            </g>
            <g id="Group-12" transform="translate(8.000000, 6.000000)" fill-rule="nonzero" fill="#FFFFFF">
                <g id="17137454831552644391" transform="translate(13.330078, 0.000000)">
                    <path d="M7.98300781,5.16089583 L7.67108398,4.80353125 C7.67142578,4.80039583 7.67135742,4.79733333 7.67101562,4.79266667 C7.67771484,4.71296875 7.6821582,4.6326875 7.68509766,4.55233333 C7.68578125,4.52914583 7.68489258,4.50435417 7.68530273,4.48116667 C7.68591797,4.41955208 7.68509766,4.35997917 7.6825,4.30047917 C7.68140625,4.27444792 7.68010742,4.25023958 7.67853516,4.22435417 C7.67723633,4.18461458 7.67532227,4.14538542 7.67251953,4.10389583 L7.98533203,3.74901042 C8.13456055,3.57947917 8.40546875,3.35438542 8.32254883,3.14008333 L7.98006836,2.25363542 C7.89714844,2.03911458 7.55665039,2.08410417 7.33892578,2.07601042 L6.8822168,2.0584375 C6.84769531,2.01439583 6.81050781,1.97254167 6.77475586,1.93003125 C6.77338867,1.92842708 6.77174805,1.92594792 6.77003906,1.9236875 C6.75732422,1.90946875 6.7465918,1.89401042 6.73374023,1.88001042 C6.71439453,1.85755208 6.69210937,1.83611458 6.67214844,1.81423958 C6.64323242,1.78317708 6.61445312,1.75160417 6.58478516,1.7215625 C6.53611328,1.67161458 6.48477539,1.62451042 6.43418945,1.57777083 C6.43213867,1.57551042 6.42885742,1.57361458 6.42708008,1.57208333 C6.4243457,1.56923958 6.42188477,1.56603125 6.41915039,1.56311458 L6.40438477,1.07508333 C6.39768555,0.844010417 6.44027344,0.48015625 6.24052734,0.391489583 L5.40920898,0.0224583333 C5.20918945,-0.0663541667 4.99672852,0.222760417 4.83827148,0.380479167 L4.50351562,0.713854167 C4.42845703,0.705833333 4.35394531,0.701677083 4.27936523,0.698614583 C4.25851562,0.697739583 4.2375293,0.698177083 4.21524414,0.698322917 C4.1671875,0.697885417 4.1187207,0.696354167 4.06929687,0.698395833 C4.00688477,0.700510417 3.94447266,0.704666667 3.88226562,0.710427083 C3.87426758,0.710864583 3.86626953,0.710864583 3.85998047,0.711447917 C3.85553711,0.712395833 3.8521875,0.711666667 3.84767578,0.712614583 L3.51469727,0.37821875 C3.35603516,0.219916667 3.14473633,-0.0699270833 2.94382812,0.018375 L2.1127832,0.3836875 C1.91166992,0.4720625 1.95418945,0.836135417 1.94619141,1.06771875 L1.92999023,1.55560417 C1.925,1.55961458 1.92000977,1.56515625 1.91536133,1.57004167 C1.86074219,1.61860417 1.80714844,1.66877083 1.75505859,1.72097917 C1.73584961,1.74110417 1.71732422,1.761375 1.69852539,1.78171875 C1.66154297,1.82014583 1.62442383,1.8598125 1.58894531,1.90057292 C1.57076172,1.92171875 1.55401367,1.94315625 1.53630859,1.96473958 C1.51224609,1.99259375 1.48873047,2.02008333 1.46569336,2.04946875 L1.00789062,2.06441667 C0.791259766,2.07163542 0.450146484,2.02620833 0.367021484,2.23934375 L0.0209179687,3.12601042 C-0.0622753906,3.3394375 0.208359375,3.56526042 0.356220703,3.73428125 L0.668828125,4.09142708 C0.663769531,4.14669792 0.661513672,4.20167708 0.658642578,4.25760417 C0.658710937,4.26278125 0.657822266,4.26825 0.657958984,4.27342708 C0.653720703,4.36821875 0.651601562,4.46286458 0.654677734,4.55721875 C0.656113281,4.59863542 0.658984375,4.63932292 0.661445312,4.68066667 C0.663701172,4.7140625 0.664384766,4.74804167 0.667324219,4.78136458 C0.667119141,4.78501042 0.667392578,4.78836458 0.667666016,4.79084375 L0.354443359,5.14696875 C0.205966797,5.31591667 -0.0659667969,5.54064583 0.0168164062,5.754875 L0.359296875,6.64132292 C0.442216797,6.85598958 0.783740234,6.81129167 1.00084961,6.81975 L1.45796875,6.83630208 C1.46104492,6.84111458 1.46473633,6.84395833 1.46801758,6.84891667 C1.51436523,6.90827083 1.56303711,6.96623958 1.61375977,7.02457292 C1.63160156,7.0450625 1.65046875,7.06263542 1.66858398,7.08276042 C1.70583984,7.12308333 1.74336914,7.16296875 1.78219727,7.20183333 C1.80126953,7.21947917 1.82143555,7.23792708 1.84071289,7.25695833 C1.86771484,7.28240625 1.89396484,7.30836458 1.92103516,7.33155208 L1.93498047,7.81980208 C1.94181641,8.050875 1.89943359,8.41560417 2.09931641,8.50434375 L2.93056641,8.87344792 C3.13072266,8.96233333 3.34229492,8.6734375 3.50075195,8.51571875 L3.83584961,8.18307292 C3.83954102,8.18314583 3.8430957,8.18263542 3.84678711,8.18270833 C3.88992187,8.1878125 3.93271484,8.1895625 3.97550781,8.19189583 C3.98835937,8.1930625 4.00080078,8.19313542 4.01296875,8.19452083 C4.03306641,8.19517708 4.05234375,8.19685417 4.07175781,8.19758333 C4.09472656,8.19809375 4.11762695,8.19736458 4.1405957,8.1974375 C4.19644531,8.19882292 4.25236328,8.19758333 4.30773437,8.19488542 C4.33186523,8.19401042 4.35654297,8.19204167 4.38040039,8.19058333 C4.41806641,8.18883333 4.45436523,8.18686458 4.49141602,8.18453125 L4.82494141,8.51776042 C4.98380859,8.6769375 5.19401367,8.96627083 5.39485352,8.87782292 L6.2259668,8.51251042 C6.42714844,8.42398958 6.38558594,8.0605 6.39324219,7.8281875 L6.40896484,7.34139583 C6.44813477,7.30654167 6.48586914,7.27022917 6.52230469,7.23479167 C6.52743164,7.22844792 6.53331055,7.224 6.53891602,7.21896875 C6.55163086,7.20613542 6.56523437,7.19534375 6.57617187,7.18302083 C6.59832031,7.16209375 6.61739258,7.13897917 6.63755859,7.118125 C6.66640625,7.08698958 6.69703125,7.05585417 6.72635742,7.02326042 C6.76894531,6.97447917 6.81180664,6.9234375 6.85323242,6.87028125 C6.85794922,6.86554167 6.86164062,6.86153125 6.86567383,6.85533333 C6.86916016,6.85205208 6.8712793,6.84986458 6.87326172,6.8473125 L7.3306543,6.83163542 C7.54728516,6.82441667 7.88921875,6.869625 7.97241211,6.65641667 L8.31844727,5.76975 C8.40205078,5.55646875 8.13080078,5.32991667 7.98300781,5.16089583 Z M5.99853516,4.44791667 C5.99853516,5.52511458 5.17979492,6.3984375 4.16992187,6.3984375 C3.16004883,6.3984375 2.34130859,5.52511458 2.34130859,4.44791667 C2.34130859,3.37071875 3.16004883,2.49739583 4.16992187,2.49739583 C5.17979492,2.49739583 5.99853516,3.37071875 5.99853516,4.44791667 Z" id="Shape"></path>
                </g>
                <g id="group" transform="translate(0.000000, 11.083333)">
                    <path d="M23.5302539,13.4717188 L20.5510156,12.0593229 C20.3405371,11.9595729 20.2046387,11.736375 20.2046387,11.4907917 L20.2046387,10.618125 C21.2054199,9.76755208 21.8486816,8.45775 21.8486816,6.9899375 L21.8486816,5.76151042 C22.1783789,5.5671875 22.3966504,5.19166667 22.3966504,4.77108333 L22.3966504,4.65186458 C22.3966504,2.09423958 20.4458789,0.0134166667 18.0481055,0.0134166667 L16.952168,0.0134166667 C14.5543945,0.0134166667 12.603623,2.09423958 12.603623,4.65186458 L12.603623,5.73358333 C12.603623,6.10327083 12.7527832,6.43817708 13.0127539,6.65247917 C13.0568457,6.68879167 13.1032617,6.72072917 13.1515918,6.74836458 L13.1515918,6.98986458 C13.1515918,8.45767708 13.7947852,9.76747917 14.795498,10.6179792 L14.795498,11.4907188 C14.795498,11.7363021 14.6595312,11.9595 14.4491211,12.05925 L11.4698828,13.4716458 C10.4941895,13.9341563 9.86371094,14.9689896 9.86371094,16.107875 L9.86371094,23.3560833 C9.86371094,23.6581042 10.0932617,23.9029583 10.3764062,23.9029583 C10.6595508,23.9029583 10.8891016,23.6581042 10.8891016,23.3560833 L10.8891016,16.1079479 C10.8891016,16.0445833 10.8933398,15.9819479 10.8994922,15.9198229 L12.2722852,17.3841354 C12.4859082,17.6120729 12.603623,17.9150417 12.603623,18.2374063 L12.603623,23.3561563 C12.603623,23.6581771 12.8331738,23.9030313 13.1163184,23.9030313 C13.3994629,23.9030313 13.6290137,23.6581771 13.6290137,23.3561563 L13.6290137,18.2374063 C13.6290137,17.6229375 13.4047266,17.0452917 12.997373,16.6107813 L11.3607812,14.8650104 C11.5082324,14.7018229 11.6851465,14.5665625 11.8863965,14.4711146 L14.8153906,13.0825625 L16.9875098,15.3994896 L16.9875098,23.3560833 C16.9875098,23.6581042 17.2170605,23.9029583 17.5002051,23.9029583 C17.7833496,23.9029583 18.0129004,23.6581042 18.0129004,23.3560833 L18.0129004,15.3995625 L20.1850195,13.0826354 L23.1139453,14.4711146 C23.3151953,14.5665625 23.4921094,14.7018229 23.6395605,14.8650833 L22.0029687,16.6107813 C21.5956152,17.0452917 21.3713281,17.6229375 21.3713281,18.2374063 L21.3713281,23.3561563 C21.3713281,23.6581771 21.6008789,23.9030313 21.8840234,23.9030313 C22.167168,23.9030313 22.3967187,23.6581771 22.3967187,23.3561563 L22.3967187,18.2374063 C22.3967187,17.9151146 22.5143652,17.6120729 22.7280566,17.3841354 L24.1007812,15.9198958 C24.1069336,15.9820208 24.1111719,16.0445104 24.1111719,16.107875 L24.1111719,23.3560833 C24.1111719,23.6581042 24.3407227,23.9029583 24.6238672,23.9029583 C24.9070117,23.9029583 25.1365625,23.6581042 25.1365625,23.3560833 L25.1365625,16.1079479 C25.1363574,14.9690625 24.5059473,13.9342292 23.5302539,13.4717188 Z M17.5,14.3996563 L15.5940723,12.3665938 C15.7389941,12.1065 15.8208203,11.8055729 15.8208203,11.4907917 L15.8208203,11.26825 C16.3378223,11.4999792 16.9051367,11.6283854 17.5000684,11.6283854 C18.095,11.6283854 18.6622461,11.5000521 19.1791797,11.2683229 L19.1791797,11.4907917 C19.1791797,11.8056458 19.2610059,12.1065 19.4059961,12.3666667 L17.5,14.3996563 Z M17.5000684,10.5345625 C15.6676953,10.5346354 14.1769141,8.94446875 14.1769141,6.9899375 L14.1769141,6.74398958 C14.4968359,6.60872917 14.8091016,6.39347917 15.1080371,6.09926042 C15.3160547,5.8944375 15.3291113,5.54844792 15.1370215,5.32648958 C14.945,5.10460417 14.6207031,5.09067708 14.4125488,5.2955 C14.1561328,5.54801042 13.8999219,5.711125 13.6512305,5.78039583 C13.6452148,5.78207292 13.6407715,5.78280208 13.637627,5.78309375 C13.6339355,5.7754375 13.6289453,5.75939583 13.6289453,5.73365625 L13.6289453,4.6519375 C13.6289453,2.69740625 15.1197266,1.10723958 16.9520996,1.10723958 L18.0480371,1.10723958 C19.8804785,1.10723958 21.3711914,2.69740625 21.3711914,4.6519375 L21.3711914,4.77115625 C21.3711914,4.788875 21.3612109,4.80426042 21.3480859,4.80703125 C18.277998,5.45380208 16.7381348,4.23485417 16.2186035,3.6806875 C16.0183789,3.46711458 15.6937402,3.46711458 15.493584,3.6806875 C15.2933594,3.89426042 15.2933594,4.24054167 15.493584,4.45404167 C17.0856738,6.15227083 19.4088672,6.18289583 20.8232227,6.001625 L20.8232227,6.98986458 C20.8232227,8.94439583 19.3324414,10.5345625 17.5000684,10.5345625 Z" id="Shape"></path>
                    <path d="M9.24505859,10.4971562 L9.24505859,9.3279375 C9.24505859,7.90125 8.54998047,6.64533333 7.50264648,5.92258333 C7.56731445,5.70128125 7.60108398,5.46947917 7.60108398,5.23636458 C7.60108398,3.96790625 6.63366211,2.93598958 5.44448242,2.93598958 C4.25530273,2.93598958 3.28788086,3.96797917 3.28788086,5.23636458 C3.28788086,5.47239583 3.32137695,5.7019375 3.38618164,5.92272917 C2.33891602,6.64540625 1.64390625,7.90132292 1.64390625,9.3279375 L1.64390625,10.4969375 C1.64390625,11.8784896 2.29557617,13.1001354 3.2878125,13.8323646 L3.2878125,15.0349792 C3.2878125,15.2721771 3.16428711,15.4853854 2.96542969,15.5914792 L1.19211914,16.5372083 C0.456777344,16.9295 0,17.717875 0,18.5948437 L0,23.3562292 C0,23.65825 0.229550781,23.9031042 0.512695312,23.9031042 C0.795839844,23.9031042 1.02539062,23.65825 1.02539062,23.3562292 L1.02539062,18.8313854 L1.86060547,19.7222812 C2.07422852,19.9502187 2.19194336,20.2531875 2.19194336,20.5755521 L2.19194336,23.3562292 C2.19194336,23.65825 2.42149414,23.9031042 2.70463867,23.9031042 C2.9877832,23.9031042 3.21733398,23.65825 3.21733398,23.3562292 L3.21733398,20.5755521 C3.21733398,19.9610833 2.99297852,19.3834375 2.58569336,18.9489271 L1.42324219,17.7089792 C1.41763672,17.703 1.41162109,17.6978229 1.40587891,17.6922083 C1.47881836,17.6235208 1.56064453,17.5637292 1.65074219,17.5156042 L3.42405273,16.569875 C3.51490234,16.5213854 3.59946289,16.4641458 3.67828125,16.4005625 L4.93178711,17.7377083 L4.93178711,23.3563021 C4.93178711,23.6583229 5.16133789,23.9031771 5.44448242,23.9031771 C5.72762695,23.9031771 5.95717773,23.6583229 5.95717773,23.3563021 L5.95717773,17.7376354 L7.21075195,16.4004896 C7.28963867,16.4641458 7.37413086,16.5213854 7.46498047,16.5698021 L7.95395508,16.830625 C8.02757812,16.8699271 8.10578125,16.8885208 8.18289063,16.8885208 C8.37094727,16.8885208 8.55203125,16.7776875 8.64185547,16.5861354 C8.76852539,16.3159792 8.66584961,15.9874896 8.41257812,15.8524479 L7.92360352,15.591625 C7.72467773,15.4855312 7.60115234,15.2723229 7.60115234,15.0351979 L7.60115234,13.8325833 C8.59338867,13.1003542 9.24505859,11.8786354 9.24505859,10.4971562 Z M5.44448242,4.02973958 C6.06826172,4.02973958 6.57569336,4.57107292 6.57569336,5.23636458 C6.57569336,5.30964583 6.56954102,5.38146875 6.5577832,5.45183333 C6.20545898,5.33647917 5.83173828,5.27398958 5.44448242,5.27398958 C5.05777344,5.27398958 4.68453125,5.33626042 4.33275391,5.45132292 C4.32092773,5.38095833 4.31327148,5.3095 4.31327148,5.23636458 C4.31327148,4.571 4.82070312,4.02973958 5.44448242,4.02973958 Z M5.44448242,6.3678125 C6.97470703,6.3678125 8.21966797,7.69577083 8.21966797,9.32801042 L8.21966797,9.52619792 C6.08514648,10.2232812 4.81304687,8.49129167 4.75870117,8.41538542 C4.66949219,8.28858333 4.53311523,8.20925 4.38491211,8.19802083 C4.23670898,8.1869375 4.09110352,8.24476042 3.98603516,8.35683333 C3.49665039,8.87884375 3.01731445,9.130625 2.67114258,9.25217708 C2.70908203,7.65486458 3.93811523,6.3678125 5.44448242,6.3678125 Z M5.44448242,16.7376562 L4.25974609,15.4739375 C4.29433594,15.3329167 4.31327148,15.1859167 4.31327148,15.0350521 L4.31327148,14.3675 C4.67072266,14.4866458 5.05073242,14.5508854 5.44448242,14.5508854 C5.83823242,14.5508854 6.21824219,14.4866458 6.57569336,14.3675 L6.57569336,15.0350521 C6.57569336,15.1859167 6.59462891,15.3329896 6.62921875,15.4739375 L5.44448242,16.7376562 Z M5.44448242,13.4571354 C3.91425781,13.4571354 2.66929688,12.1291771 2.66929688,10.4969375 L2.66929688,10.383625 C3.0781543,10.2834375 3.68436523,10.0506146 4.31675781,9.50811458 C4.54049805,9.73328125 4.8602832,10.0094896 5.2675,10.2463958 C5.74916016,10.5266146 6.41436523,10.7858333 7.22688477,10.7858333 C7.53566406,10.7858333 7.86604492,10.7475521 8.21529297,10.6596146 C8.13579102,12.2165312 6.92350586,13.4571354 5.44448242,13.4571354 Z" id="Shape"></path>
                    <path d="M33.8078809,15.3682812 L30.9386328,13.8379792 C30.7397754,13.7318854 30.61625,13.5186771 30.61625,13.2815521 L30.61625,12.5065208 C31.2878809,11.8704687 31.7121875,10.9435521 31.7121875,9.91251042 L31.7121875,9.29002083 C31.7240137,9.29002083 31.7356348,9.29038542 31.7474609,9.29038542 C32.0306055,9.29038542 32.2601563,9.04553125 32.2601563,8.74351042 L32.2601563,7.57451042 C32.2601563,5.66146875 30.8010254,4.1050625 29.0075488,4.1050625 L27.9116113,4.1050625 C26.1181348,4.1050625 24.6590039,5.66146875 24.6590039,7.57451042 L24.6590039,8.74351042 C24.6590039,9.04553125 24.8885547,9.29038542 25.1716992,9.29038542 C25.1759375,9.29038542 25.1882422,9.29023958 25.2069727,9.2894375 L25.2069727,9.91251042 C25.2069727,10.943625 25.6313477,11.8705417 26.3029785,12.5065937 L26.3029785,13.281625 C26.3029785,13.5188229 26.1794531,13.7320312 25.9805273,13.8380521 C25.7272559,13.9730937 25.6245801,14.3015833 25.75125,14.5717396 C25.8410742,14.7633646 26.0221582,14.8741979 26.2102148,14.8741979 C26.2872559,14.8741979 26.365459,14.8556042 26.439082,14.816375 C26.5299316,14.7678854 26.6144922,14.7106458 26.6933105,14.6470625 L27.9468848,15.9842083 L27.9468848,23.3563021 C27.9468848,23.6583229 28.1764355,23.9031771 28.4595801,23.9031771 C28.7427246,23.9031771 28.9722754,23.6583229 28.9722754,23.3563021 L28.9722754,15.9840625 L30.2257813,14.6469167 C30.304668,14.7105729 30.3891602,14.7678125 30.4800098,14.8162292 L33.2564258,16.2970208 L32.4143066,17.1952812 C32.0070215,17.6297917 31.782666,18.2074375 31.782666,18.8219062 L31.782666,23.3561562 C31.782666,23.6581771 32.0122168,23.9030312 32.2953613,23.9030312 C32.5785059,23.9030312 32.8080566,23.6581771 32.8080566,23.3561562 L32.8080566,18.8219062 C32.8080566,18.4996146 32.9257031,18.1965729 33.1393945,17.9686354 L33.9370801,17.1177708 C33.9612793,17.2167187 33.974541,17.3198958 33.974541,17.4257708 L33.974541,23.3561562 C33.974541,23.6581771 34.2040918,23.9030312 34.4872363,23.9030312 C34.7703809,23.9030312 34.9999316,23.6581771 34.9999316,23.3561562 L34.9999316,17.4257708 C35,16.548875 34.5432227,15.7605 33.8078809,15.3682812 Z M25.6843262,8.084125 L25.6843262,7.5744375 L25.6843945,7.5744375 C25.6843945,6.26448958 26.6835352,5.19873958 27.9116113,5.19873958 L29.0075488,5.19873958 C30.235625,5.19873958 31.2347656,6.26448958 31.2347656,7.5744375 L31.2347656,8.18190625 C29.0060449,8.05364583 27.6610742,7.12855208 27.6480176,7.1194375 C27.5612695,7.05775 27.4622852,7.0275625 27.3637793,7.0275625 C27.2314355,7.0275625 27.1001855,7.08210417 27.0010645,7.18776042 C26.5105176,7.71101042 26.0298828,7.96286458 25.6843262,8.084125 Z M28.4595801,14.9841562 L27.2748438,13.7204375 C27.3094336,13.5794167 27.3283691,13.4324167 27.3283691,13.2815521 L27.3283691,13.1651042 C27.6808301,13.3050312 28.0619336,13.3818854 28.4595801,13.3818854 C28.8572266,13.3818854 29.2383301,13.3050312 29.590791,13.1651042 L29.590791,13.2815521 C29.590791,13.4324167 29.6096582,13.5794167 29.6443164,13.7204375 L28.4595801,14.9841562 Z M28.4595801,12.2882083 C27.2315039,12.2882083 26.2323633,11.2225312 26.2323633,9.91251042 L26.2323633,9.030875 L26.2323633,9.030875 C26.5914551,8.87782292 27.0098145,8.6345 27.4355566,8.24760417 C27.9739551,8.54641667 29.1003809,9.06288542 30.6867969,9.23351042 L30.6867969,9.91251042 C30.6867969,11.2224583 29.6876563,12.2882083 28.4595801,12.2882083 Z" id="Shape"></path>
                </g>
            </g>
        </g>
    </g>
</svg>