<?xml version="1.0" encoding="UTF-8"?>
<svg width="50px" height="50px" viewBox="0 0 50 50" version="1.1" xmlns="http://www.w3.org/2000/svg" xmlns:xlink="http://www.w3.org/1999/xlink">
    <!-- Generator: Sketch 43.1 (39012) - http://www.bohemiancoding.com/sketch -->
    <title>Group 11</title>
    <desc>Created with Sketch.</desc>
    <defs></defs>
    <g id="Page-1" stroke="none" stroke-width="1" fill="none" fill-rule="evenodd">
        <g id="Group-11">
            <g id="Group-6" fill="#229494">
                <g id="низ-иконка">
                    <ellipse id="Oval" cx="25" cy="25" rx="25" ry="25"></ellipse>
                </g>
            </g>
            <g id="team" transform="translate(8.000000, 8.000000)" fill-rule="nonzero" fill="#FFFFFF">
                <path d="M35,14.6774194 L33.7314926,14.6774194 L31.8408597,15.6722136 C31.6280636,15.5547899 31.4067225,15.4552829 31.168016,15.3954684 L28.7897713,14.800356 L28.7897713,14.5299505 C29.8418993,13.7956385 30.483871,12.5825353 30.483871,11.2903226 L30.483871,10.3035219 C30.483871,8.11050907 28.7655148,6.2752804 26.6535408,6.21133131 C26.5463159,6.20857485 26.4407447,6.21243381 26.3346223,6.21767104 L26.9512349,4.77413054 L23.9618905,1.78561306 L22.199707,2.93256208 C21.530171,2.55548294 20.8220451,2.26192355 20.0866305,2.05601848 L19.6513908,0 L15.3491605,0 L14.9139207,2.05656973 C14.1785062,2.2624748 13.469829,2.55603419 12.8008443,2.93311333 L11.0386609,1.78616431 L8.05179721,4.77302797 L8.65793532,6.21767104 C8.63478141,6.21656847 8.61273,6.21243381 8.58957595,6.21188256 C7.50850554,6.18045933 6.49028159,6.5749039 5.71682838,7.32575446 C4.94227252,8.07605376 4.51612903,9.08297631 4.51612903,10.1612903 L4.51612903,11.2903226 C4.51612903,12.5825353 5.15754948,13.7950873 6.20967742,14.5293993 L6.20967742,14.800356 L4.65836064,15.1881852 L1.84653007,13.5483871 L0,13.5483871 L0,25.2458338 L5.55364793,27.0967742 L6.63526966,27.0967742 L6.77033452,26.6237714 L8.47270347,27.6455787 C8.50054343,28.5711867 9.24284904,29.3159731 10.1676301,29.3484989 C10.2001559,30.269421 10.9402564,31.0095215 11.8611785,31.0420473 C11.8937043,31.9629694 12.6338048,32.7030699 13.5547269,32.7355957 C13.5883553,33.6780179 14.3601547,34.4354839 15.3102949,34.4354839 C15.6631174,34.4354839 16.009049,34.3255024 16.299852,34.1295205 L16.7998677,34.5711001 C17.1132734,34.8470183 17.5168142,35 17.935791,35 L18.0402596,35 C18.9796497,35 19.7440067,34.2406045 19.7558594,33.3042465 C20.6850507,33.2923938 21.4375551,32.5398894 21.4494078,31.6106981 C22.3791504,31.5988454 23.1322061,30.8452385 23.1429561,29.9154958 C24.0812437,29.8934444 24.8387097,29.1268822 24.8387097,28.1833575 C24.8387097,28.1265751 24.8359533,28.0706196 24.8301647,28.0141129 L35,22.9296087 L35,14.6774194 Z M29.3548387,10.3035219 L29.3548387,11.2903226 C29.3548387,12.2922836 28.8134766,13.228366 27.9418945,13.7330677 L27.6596364,13.8962481 L27.6618416,15.6826881 L30.4822171,16.3872307 L24.2741935,19.6546985 L24.2741935,18.1339781 C24.2741935,17.3751339 23.9676789,16.6802388 23.4657337,16.1667166 L25.4032258,15.6826881 L25.4032258,13.8948699 L25.121519,13.7319651 C24.2504882,13.228366 23.7096774,12.2922836 23.7096774,11.2903226 L23.7096774,10.1612903 C23.7096774,9.39142044 24.0139869,8.67144186 24.5672017,8.13531688 C25.1198652,7.59946758 25.8530746,7.31059409 26.6196368,7.34036357 C28.1276777,7.38556889 29.3548387,8.71499337 29.3548387,10.3035219 Z M18.3511845,19.2109139 L15.7957015,18.3941847 C14.6311114,18.0209646 13.3705976,17.9652848 12.1784432,18.2293505 L11.8548387,18.3010175 L11.8548387,18.1339781 C11.8548387,17.3555633 12.3826944,16.6796875 13.1374039,16.4905966 L16.3709677,15.6826881 L16.3709677,13.8948699 L16.0892609,13.7319651 C15.2182302,13.228366 14.6774194,12.2922836 14.6774194,11.2903226 L14.6774194,10.1612903 C14.6774194,9.39142044 14.9817288,8.67144186 15.5349436,8.13531688 C16.0876071,7.59946758 16.8255024,7.31059409 17.5873787,7.34036357 C19.0954196,7.38556889 20.3225806,8.71499337 20.3225806,10.3035219 L20.3225806,11.2903226 C20.3225806,12.2922836 19.7812185,13.228366 18.9096364,13.7330677 L18.6273784,13.8962481 L18.6295835,15.6826881 L21.8625961,16.4905966 C22.6173056,16.6796875 23.1451613,17.3555633 23.1451613,18.1339781 L23.1451613,20.2492597 L23.0056861,20.3225806 L22.6597546,20.3225806 L19.1891381,19.3308184 C18.9157006,19.2533628 18.6339938,19.221664 18.3511845,19.2109139 L18.3511845,19.2109139 Z M11.9813587,8.44899824 C13.0414803,6.39490927 15.17523,5.08064516 17.5,5.08064516 C19.8027186,5.08064516 21.9273721,6.37726815 22.9954873,8.40351722 C22.7267357,8.94239853 22.5806452,9.5391649 22.5806452,10.1612903 L22.5806452,11.2903226 C22.5806452,12.5825353 23.2220656,13.7950873 24.2741935,14.5293993 L24.2741935,14.800356 L22.016129,15.365699 L19.7575133,14.800356 L19.7575133,14.5299505 C20.8096412,13.7956385 21.4516129,12.5825353 21.4516129,11.2903226 L21.4516129,10.3035219 C21.4516129,8.11050907 19.7332567,6.2752804 17.6212828,6.21133131 C16.5407636,6.17963239 15.5219884,6.57435265 14.7485351,7.32520321 C13.9745306,8.07605376 13.5483871,9.08297631 13.5483871,10.1612903 L13.5483871,11.2903226 C13.5483871,12.5825353 14.1898075,13.7950873 15.2419355,14.5293993 L15.2419355,14.800356 L12.983871,15.365699 L10.7252552,14.800356 L10.7252552,14.5299505 C11.7773831,13.7956385 12.4193548,12.5825353 12.4193548,11.2903226 L12.4193548,10.3035219 C12.4193548,9.63922312 12.2594821,9.00855276 11.9813587,8.44899824 L11.9813587,8.44899824 Z M9.38508065,5.03488845 L11.1886105,3.2313587 L12.7760365,4.26446732 L13.0797946,4.07813289 C13.8408439,3.61174554 14.6633616,3.27022429 15.5241935,3.06431922 L15.8715033,2.98107518 L16.264294,1.12903226 L18.7362572,1.12903226 L19.1279454,2.98052386 L19.4752552,3.06349228 C20.3360871,3.26967304 21.1586048,3.61119422 21.9196541,4.07758157 L22.2234123,4.263916 L23.8108383,3.23080738 L25.612163,5.03268331 L24.9718451,6.53190365 C24.5360541,6.71934065 24.1319619,6.98313071 23.7802419,7.32410064 C23.757088,7.3467033 23.7372417,7.37095985 23.714639,7.39411383 C22.3846632,5.27993481 20.0334315,3.9516129 17.5,3.9516129 C14.9483761,3.9516129 12.5905289,5.29233871 11.2638609,7.42801789 C10.9088332,7.05645161 10.4865486,6.75544985 10.0185074,6.5451345 L9.38508065,5.03488845 Z M7.33870968,15.6826881 L7.33870968,13.8948699 L7.05700286,13.7319651 C6.18597212,13.228366 5.64516129,12.2922836 5.64516129,11.2903226 L5.64516129,10.1612903 C5.64516129,9.39142044 5.94947077,8.67144186 6.50268556,8.13531688 C7.05534904,7.59946758 7.79021236,7.31059409 8.55512064,7.34036357 C10.0631615,7.38556889 11.2903226,8.71499337 11.2903226,10.3035219 L11.2903226,11.2903226 C11.2903226,12.2922836 10.7489604,13.228366 9.87737837,13.7330677 L9.5951203,13.8962481 L9.59732544,15.6826881 L11.5342663,16.1667166 C11.0323211,16.6802388 10.7258065,17.3751339 10.7258065,18.1339781 L10.7258065,18.5521279 L8.96500126,18.9435405 L9.0107579,18.7836678 L9.03225806,17.7403604 L6.05504192,16.0035361 L7.33870968,15.6826881 Z M1.12903226,14.6774194 L1.5405667,14.6774194 L5.60050722,17.0454653 L3.55193111,25.2394941 L1.12903226,24.4315855 L1.12903226,14.6774194 Z M5.73667465,25.9677419 L4.62555914,25.5975539 L6.61569901,17.6378213 L7.90322581,18.3886719 L7.90322581,18.5499228 L5.78408518,25.9677419 L5.73667465,25.9677419 Z M9.59677419,27.5929309 C9.59677419,27.4264428 9.664031,27.2632623 9.78200605,27.1452873 L10.7743196,26.1529738 C10.8922946,26.0349987 11.0554751,25.9677419 11.2219632,25.9677419 C11.5709268,25.9677419 11.8548387,26.2516539 11.8548387,26.6006174 C11.8548387,26.7671056 11.7875819,26.930286 11.6696069,27.0482611 L10.6772933,28.0405746 C10.5593183,28.1585496 10.3961379,28.2258065 10.2296497,28.2258065 C9.88068615,28.2258065 9.59677419,27.9418945 9.59677419,27.5929309 Z M11.2903226,29.2864793 C11.2903226,29.1199912 11.3575794,28.9568107 11.4755544,28.8388357 L12.4678679,27.8465222 C12.585843,27.7285471 12.7490234,27.6612903 12.9155116,27.6612903 C13.2644751,27.6612903 13.5483871,27.9452023 13.5483871,28.2941658 C13.5483871,28.460654 13.4811303,28.6238344 13.3631552,28.7418095 L12.3708417,29.734123 C12.2528667,29.852098 12.0896862,29.9193548 11.9231981,29.9193548 C11.5742345,29.9193548 11.2903226,29.6354429 11.2903226,29.2864793 Z M12.983871,30.9800277 C12.983871,30.8135396 13.0511278,30.6503591 13.1691028,30.5323841 L14.1614163,29.5400706 C14.2793914,29.4220955 14.4425718,29.3548387 14.60906,29.3548387 C14.9580235,29.3548387 15.2419355,29.6387507 15.2419355,29.9877142 C15.2419355,30.1542024 15.1746787,30.3173828 15.0567036,30.4353579 L14.0643901,31.4276714 C13.9464151,31.5456464 13.7832346,31.6129032 13.6167465,31.6129032 C13.2677829,31.6129032 12.983871,31.3289913 12.983871,30.9800277 Z M15.3102949,33.3064516 C14.9613313,33.3064516 14.6774194,33.0225397 14.6774194,32.6735761 C14.6774194,32.507088 14.7446762,32.3439075 14.8626512,32.2259325 L15.8549647,31.233619 C15.9729398,31.1156439 16.1361202,31.0483871 16.3026084,31.0483871 C16.6515719,31.0483871 16.9354839,31.3322991 16.9354839,31.6812626 C16.9354839,31.8477508 16.8682271,32.0109312 16.750252,32.1289062 L15.7579385,33.1212198 C15.6399635,33.2391948 15.476783,33.3064516 15.3102949,33.3064516 Z M18.0402596,33.8709677 L17.935791,33.8709677 C17.7919056,33.8709677 17.6540843,33.8185956 17.5468592,33.7234989 L17.1245748,33.3511057 L17.5485131,32.9271673 C17.6998409,32.7758395 17.8172647,32.5958449 17.9040921,32.4026194 L18.4173387,32.8298655 C18.5515767,32.9417764 18.6290323,33.1066107 18.6290323,33.2821951 C18.6290323,33.6069021 18.3649666,33.8709677 18.0402596,33.8709677 L18.0402596,33.8709677 Z M23.1027124,28.7903226 L23.0051348,28.7903226 C22.8634545,28.7903226 22.7250819,28.7401556 22.6167544,28.6491935 L19.5554672,26.0981209 L18.8321809,26.9658439 L21.8049867,29.4427687 C21.9386735,29.5546796 22.016129,29.7195139 22.016129,29.8950983 C22.016129,30.2198053 21.7520633,30.483871 21.4273564,30.483871 L21.3041441,30.483871 C21.1671497,30.483871 21.0331873,30.4353579 20.9276163,30.3471522 L17.8613675,27.7922206 L17.1380812,28.6599436 L20.1108871,31.137144 C20.2451251,31.248228 20.3225806,31.4130623 20.3225806,31.5886467 C20.3225806,31.9133537 20.058515,32.1774194 19.733808,32.1774194 C19.5171529,32.1774194 19.3060106,32.100515 19.1397981,31.9624181 L17.8798355,30.9122196 C17.6022634,30.3449471 17.0319588,29.9493999 16.3640767,29.9256946 C16.3315508,29.0047725 15.5914504,28.264672 14.6705283,28.2321463 C14.6380024,27.3112241 13.897902,26.5711237 12.9769799,26.5385979 C12.9439028,25.5961757 12.1721034,24.8387097 11.2219632,24.8387097 C10.7580566,24.8387097 10.3040732,25.0266979 9.97605847,25.3547127 L8.98374496,26.3470262 C8.92448177,26.4062894 8.87541742,26.4735462 8.82552605,26.5402517 L7.09145825,25.4997008 L8.61162736,20.1792465 L12.4226626,19.331921 C13.4224184,19.1083748 14.4764759,19.1568879 15.4514239,19.4689154 L16.2830377,19.7349105 L13.4637648,21.144547 C12.819588,21.4673245 12.4193548,22.1153604 12.4193548,22.8358903 L12.4193548,22.9475255 C12.4193548,23.9902816 13.2677829,24.8387097 14.310539,24.8387097 C14.6531628,24.8387097 14.9902738,24.7455425 15.2832819,24.5688555 L17.3853327,23.3083417 C17.8076172,23.0553018 18.3743385,23.110706 18.7390137,23.4387207 L23.508734,27.7313036 C23.6363565,27.8470734 23.7096774,28.0113565 23.7096774,28.1833575 C23.7096774,28.5182633 23.4376181,28.7903226 23.1027124,28.7903226 L23.1027124,28.7903226 Z M33.8709677,22.2316816 L24.3604697,26.9873441 C24.3295977,26.9545426 24.2973475,26.923395 24.2634435,26.8930743 L19.4945502,22.6004914 C19.0766759,22.2234123 18.5364163,22.016129 17.9735541,22.016129 C17.5620196,22.016129 17.1579275,22.12804 16.8040023,22.3402848 L14.7011247,23.6013499 C14.5831495,23.6724656 14.4483603,23.7096774 14.310539,23.7096774 C13.8899083,23.7096774 13.5483871,23.3681562 13.5483871,22.9475255 L13.5483871,22.8358903 C13.5483871,22.5450873 13.7099136,22.2843293 13.9695691,22.1545017 L17.1185106,20.5800309 C17.657392,20.3101767 18.2971585,20.249811 18.8779376,20.4168505 L22.4254583,21.4301127 L23.2846364,21.4516129 L33.8709677,15.8797725 L33.8709677,22.2316816 Z" id="Shape"></path>
            </g>
        </g>
    </g>
</svg>