<?xml version="1.0" encoding="UTF-8"?>
<svg width="50px" height="50px" viewBox="0 0 50 50" version="1.1" xmlns="http://www.w3.org/2000/svg" xmlns:xlink="http://www.w3.org/1999/xlink">
    <!-- Generator: Sketch 43.1 (39012) - http://www.bohemiancoding.com/sketch -->
    <title>Group 4</title>
    <desc>Created with Sketch.</desc>
    <defs></defs>
    <g id="Page-1" stroke="none" stroke-width="1" fill="none" fill-rule="evenodd">
        <g id="Главная" transform="translate(-695.000000, -1063.000000)">
            <g id="Group-10" transform="translate(135.000000, 1063.000000)">
                <g id="Group-8" transform="translate(435.000000, 0.000000)">
                    <g id="Group-4" transform="translate(125.000000, 0.000000)">
                        <g id="низ-иконка" fill="#229494">
                            <ellipse id="Oval" cx="25" cy="25" rx="25" ry="25"></ellipse>
                        </g>
                        <path d="M13.1578947,19.8148148 C13.1578947,26.2640108 18.4046052,31.5107212 24.8538012,31.5107212 C31.3029971,31.5107212 36.5497076,26.2640108 36.5497076,19.8148148 C36.5497076,13.3656189 31.3029971,8.11890838 24.8538012,8.11890838 C18.4046052,8.11890838 13.1578947,13.3656189 13.1578947,19.8148148 Z M24.8538012,9.67836257 C30.4431652,9.67836257 34.9902534,14.2254508 34.9902534,19.8148148 C34.9902534,25.4041789 30.4431652,29.9512671 24.8538012,29.9512671 C19.2644371,29.9512671 14.7173489,25.4041789 14.7173489,19.8148148 C14.7173489,14.2254508 19.2644371,9.67836257 24.8538012,9.67836257 Z" id="Shape" fill="#EDF7F8" fill-rule="nonzero"></path>
                        <path d="M17.6327973,18.4247076 L20.6551535,21.402595 L19.9597953,25.5878411 C19.9113669,25.8793251 20.0316764,26.1729411 20.2707724,26.3465521 C20.5095638,26.5201633 20.8260234,26.543616 21.0882675,26.4077729 L24.8538012,24.4523635 L28.6190302,26.4077729 C28.8791423,26.5427022 29.1956019,26.5216862 29.4365254,26.3465521 C29.6756214,26.1729411 29.7959308,25.8793251 29.7475025,25.5878411 L29.0521442,21.402595 L32.0745005,18.4247076 C32.2849659,18.2175926 32.3601973,17.9093567 32.2688231,17.6282285 C32.1774488,17.347405 31.935307,17.142422 31.643214,17.0982578 L27.4488304,16.4668616 L25.5509868,12.6714791 C25.4191033,12.4074074 25.14894,12.2404971 24.8538012,12.2404971 C24.5583577,12.2404971 24.288499,12.4074074 24.156311,12.6714791 L22.2584674,16.4668616 L18.0640838,17.0982578 C17.7719907,17.1421174 17.5298489,17.347405 17.4384747,17.6282285 C17.3471004,17.9093567 17.4226364,18.2175926 17.6327973,18.4247076 L17.6327973,18.4247076 Z M22.8910819,17.9486476 C23.1420565,17.9108796 23.3589181,17.7534113 23.4725268,17.5264986 L24.8538012,14.7636452 L26.2350756,17.5264986 C26.3486842,17.7534113 26.5655458,17.9108796 26.8165205,17.9486476 L29.8693348,18.4082603 L27.669347,20.5753533 C27.4887305,20.7535331 27.4058845,21.0084674 27.4473075,21.2588328 L27.9535209,24.3049464 L25.2129021,22.8819445 C25.1005117,22.823465 24.9771564,22.7942252 24.8538012,22.7942252 C24.7304459,22.7942252 24.6070907,22.823465 24.4943957,22.8819445 L21.7537768,24.3049464 L22.2599903,21.2588328 C22.3017178,21.0084674 22.2188718,20.7535331 22.0379508,20.5753533 L19.8382675,18.4082603 L22.8910819,17.9486476 Z" id="Shape" fill="#EDF7F8" fill-rule="nonzero"></path>
                        <path d="M25.6335283,5.7797271 C25.6335283,6.21040452 25.2844786,6.55945419 24.8538012,6.55945419 C24.4231237,6.55945419 24.0740741,6.21040452 24.0740741,5.7797271 C24.0740741,5.34904967 24.4231237,5 24.8538012,5 C25.2844786,5 25.6335283,5.34904967 25.6335283,5.7797271 Z" id="Shape" fill="#EDF7F8" fill-rule="nonzero"></path>
                        <path d="M21.1790327,5.45961255 C14.619883,7.1338938 10.0389864,13.0369761 10.0389864,19.8148148 C10.0389864,24.0244274 11.808906,27.9909844 14.9159357,30.800134 L10.2183845,39.0789474 C10.0673124,39.3454557 10.0861964,39.6756214 10.2665083,39.9229411 C10.4468202,40.1705653 10.7550561,40.2896565 11.0550682,40.2272173 L16.3898027,39.1194566 L18.2648027,44.4030214 C18.3665326,44.6905458 18.6269493,44.8918738 18.930921,44.9189815 C19.2348928,44.9460892 19.5263767,44.792885 19.6771442,44.527595 L24.8538012,35.4267178 L30.0301535,44.527595 C30.1696515,44.7727827 30.4291545,44.9217227 30.7075414,44.9217227 C30.730385,44.9217227 30.7535331,44.920809 30.7763767,44.9189815 C31.0803485,44.8918738 31.3407651,44.6902412 31.4427997,44.4030214 L33.3174951,39.1194566 L38.6522296,40.2272173 C38.9519372,40.2893519 39.2604776,40.1702607 39.4407895,39.9229411 C39.6214059,39.6756214 39.6399853,39.3454557 39.4889132,39.0789474 L34.7913621,30.800134 C37.8983918,27.9909844 39.6683114,24.0244274 39.6683114,19.8148148 C39.6683114,13.0369761 35.0874147,7.1338938 28.5285697,5.45961255 C28.1109893,5.35300928 27.6867081,5.60489762 27.5801048,6.02217349 C27.4735014,6.43944936 27.7253899,6.86403509 28.1426657,6.97063844 C34.0107212,8.46856725 38.1091618,13.7503046 38.1091618,19.8148148 C38.1091618,27.1957237 32.1147052,33.0701754 24.8538012,33.0701754 C17.5877193,33.0701754 11.5984405,27.1908504 11.5984405,19.8148148 C11.5984405,13.7503046 15.6965765,8.46856725 21.564632,6.97063844 C21.9819079,6.86403509 22.2337963,6.43944936 22.1274975,6.02217349 C22.0208943,5.60489762 21.596613,5.35300928 21.1790327,5.45961255 L21.1790327,5.45961255 Z M19.1645346,42.2752193 L17.6321881,37.9571759 C17.5018275,37.5898514 17.1204922,37.3751219 16.7388523,37.4543128 L12.4250731,38.3500853 L16.1427875,31.7979411 C18.3104897,33.3738426 20.877193,34.3338816 23.5462354,34.5714547 L19.1645346,42.2752193 Z M32.9684454,37.4543128 C32.5871102,37.3751219 32.2054703,37.5898514 32.0751096,37.9571759 L30.5430678,42.2752193 L26.1610624,34.5714547 C28.8304094,34.3338816 31.396808,33.3738426 33.5648148,31.7979411 L37.2825293,38.3500853 L32.9684454,37.4543128 Z" id="Shape" fill="#EDF7F8" fill-rule="nonzero"></path>
                    </g>
                </g>
            </g>
        </g>
    </g>
</svg>