<?xml version="1.0" encoding="UTF-8"?>
<svg width="50px" height="50px" viewBox="0 0 50 50" version="1.1" xmlns="http://www.w3.org/2000/svg" xmlns:xlink="http://www.w3.org/1999/xlink">
    <!-- Generator: Sketch 43.1 (39012) - http://www.bohemiancoding.com/sketch -->
    <title>Group 5</title>
    <desc>Created with Sketch.</desc>
    <defs></defs>
    <g id="Page-1" stroke="none" stroke-width="1" fill="none" fill-rule="evenodd">
        <g id="Главная" transform="translate(-1130.000000, -1063.000000)">
            <g id="Group-10" transform="translate(135.000000, 1063.000000)">
                <g id="Group-9" transform="translate(870.000000, 0.000000)">
                    <g id="Group-5" transform="translate(125.000000, 0.000000)">
                        <g id="низ-иконка" fill="#229494">
                            <ellipse id="Oval" cx="25" cy="25" rx="25" ry="25"></ellipse>
                        </g>
                        <g id="milling-machine" transform="translate(8.000000, 9.000000)" fill-rule="nonzero" fill="#EDF7F8">
                            <path d="M15.1271186,23.7288136 C17.2566912,23.7288136 18.9830508,22.0024539 18.9830508,19.8728814 C18.9830508,17.7433088 17.2566912,16.0169492 15.1271186,16.0169492 C12.9975461,16.0169492 11.2711864,17.7433088 11.2711864,19.8728814 C11.2744531,22.0010994 12.9989006,23.7255469 15.1271186,23.7288136 Z M15.1271186,17.2033898 C16.6014381,17.2033898 17.7966102,18.3985619 17.7966102,19.8728814 C17.7966102,21.3472008 16.6014381,22.5423729 15.1271186,22.5423729 C13.6527992,22.5423729 12.4576271,21.3472008 12.4576271,19.8728814 C12.4608895,18.3999153 13.6541526,17.2066522 15.1271186,17.2033898 Z" id="Shape"></path>
                            <path d="M1.45932203,16.4440678 C0.603140419,16.6006198 -0.0141950271,17.3534679 3.17118185e-13,18.2237288 L3.17118185e-13,21.5813559 C-0.0141950271,22.4516168 0.603140419,23.2044649 1.45932203,23.3610169 L4.92966102,23.9898305 C4.96525424,24.0847458 5.00677966,24.179661 5.04830508,24.2686441 L3.03728814,27.1101695 C2.54809983,27.818111 2.63551249,28.7746553 3.24491525,29.3822034 L5.61779661,31.7550847 C6.22685421,32.3626086 7.1832775,32.447513 7.88983051,31.9567797 L10.790678,29.9457627 L11.0694915,30.0644068 L11.6983051,33.5347458 C11.8548571,34.3909274 12.6077052,35.0082628 13.4779661,34.9940678 L16.8355932,34.9940678 C17.7058541,35.0082628 18.4587022,34.3909274 18.6152542,33.5347458 L19.2440678,30.0644068 L19.5228814,29.9457627 L22.4237288,31.9567797 C23.1316703,32.445968 24.0882146,32.3585553 24.6957627,31.7491525 L26.6059322,29.8449153 C26.8450995,29.6188529 26.8557233,29.2417098 26.629661,29.0025424 C26.4035987,28.763375 26.0264555,28.7527512 25.7872881,28.9788136 L23.8533898,30.9127119 C23.6519638,31.1143336 23.3356258,31.1442238 23.1,30.9838983 L20.7271186,29.3347458 C22.1018418,28.5242374 23.2807293,27.4202963 24.179661,26.1016949 C24.3631318,25.8297649 24.2914215,25.4605895 24.0194915,25.2771187 C23.7475615,25.0936478 23.3783861,25.1653581 23.1949153,25.4372881 C20.378598,29.5402274 14.9319456,30.8768694 10.5361961,28.5438156 C6.14044651,26.2107619 4.19498766,20.9507406 6.01470005,16.3188511 C7.8344124,11.6869615 12.8399901,9.15776679 17.6483051,10.440678 C17.8538842,10.4936623 18.0721139,10.4329466 18.2207892,10.2814021 C18.3694645,10.1298575 18.4259981,9.91050722 18.3690943,9.70597831 C18.3121905,9.50144947 18.1504943,9.34281481 17.9449153,9.28983051 C16.1104085,8.81535781 14.1853542,8.81535781 12.3508475,9.28983051 L12.8610169,6.44830508 C12.9132009,6.16291123 13.1641503,5.9571327 13.4542373,5.96186441 L15.4237288,5.96186441 C15.7513553,5.96186441 16.0169492,5.69627061 16.0169492,5.36864407 C16.0169492,5.04101752 15.7513553,4.77542373 15.4237288,4.77542373 L13.4483051,4.77542373 C12.5780442,4.7612287 11.8251961,5.37856415 11.6686441,6.23474576 L11.0398305,9.70508475 L10.7610169,9.82372881 L7.88983051,7.78305085 C7.18188901,7.29386255 6.2253447,7.38127523 5.61779661,7.99067797 L3.24491525,10.3635593 C2.63739139,10.9726169 2.55248698,11.9290402 3.04322034,12.6355932 L5.05423729,15.5364407 C5.01271186,15.6254237 4.97118644,15.720339 4.93559322,15.8152542 L1.45932203,16.4440678 Z M1.18644068,21.5516949 L1.18644068,18.1940678 C1.181709,17.9039809 1.38748748,17.6530314 1.67288136,17.6008475 L4.50847458,17.090678 C4.03384543,18.9110971 4.03384543,20.8228012 4.50847458,22.6432203 L1.67288136,22.1330508 C1.39192306,22.0816406 1.1874883,21.8373162 1.18644068,21.5516949 L1.18644068,21.5516949 Z M17.9033898,30.4915254 L17.3932203,33.3271186 C17.3410363,33.6125125 17.0900869,33.818291 16.8,33.8135593 L13.4483051,33.8135593 C13.1582181,33.818291 12.9072687,33.6125125 12.8550847,33.3271186 L12.3449153,30.4915254 C14.1668343,30.9701197 16.0814708,30.9701197 17.9033898,30.4915254 Z M9.59830508,29.3466102 L7.22542373,30.9898305 C6.99117757,31.1517054 6.67495909,31.1243164 6.4720339,30.9245763 L4.09915254,28.5516949 C3.89753082,28.3502689 3.86764061,28.0339308 4.0279661,27.7983051 L5.67118644,25.4254237 C6.6216605,27.0461158 7.97168086,28.3961361 9.59237288,29.3466102 L9.59830508,29.3466102 Z M4.07542373,11.2059322 L6.44830508,8.83305085 C6.64973109,8.63142914 6.96606916,8.6015389 7.20169492,8.76186441 L9.57457627,10.4050847 C7.94515228,11.3580904 6.58859891,12.7146438 5.63559322,14.3440678 L3.99237288,11.9711864 C3.828339,11.7303276 3.86353804,11.4059936 4.07542373,11.2059322 L4.07542373,11.2059322 Z" id="Shape"></path>
                            <path d="M33.8135593,1.05377101e-15 L18.3898305,1.05377101e-15 C17.7345774,1.05377101e-15 17.2033898,0.531187585 17.2033898,1.18644068 L17.2033898,6.52542373 C17.1979652,6.94733847 17.4262359,7.33768119 17.7966102,7.53983051 C18.0358689,7.68197797 18.3149024,7.74236578 18.5915254,7.71186441 C20.2940678,11.9771186 19.9025424,10.9864407 20.5076271,12.4932203 C19.9665497,12.6123249 19.5799382,13.0900486 19.5762712,13.6440678 L19.5762712,15.4237288 C19.5762712,16.0789819 20.1074588,16.6101695 20.7627119,16.6101695 L21.3559322,16.6101695 L21.3559322,18.3898305 C21.3559322,19.0450836 21.8871198,19.5762712 22.5423729,19.5762712 L23.1355932,19.5762712 L23.1355932,23.1355932 C23.1355932,23.3223137 23.223505,23.4981372 23.3728814,23.6101695 L25.5084746,25.2118644 L25.5084746,27.2881356 C25.5084746,27.6157621 25.7740684,27.8813559 26.1016949,27.8813559 C26.4293214,27.8813559 26.6949153,27.6157621 26.6949153,27.2881356 L26.6949153,25.2118644 L28.8305085,23.6101695 C28.9798848,23.4981372 29.0677966,23.3223137 29.0677966,23.1355932 L29.0677966,19.5762712 L29.6610169,19.5762712 C30.31627,19.5762712 30.8474576,19.0450836 30.8474576,18.3898305 L30.8474576,16.6101695 L31.440678,16.6101695 C32.0959311,16.6101695 32.6271186,16.0789819 32.6271186,15.4237288 L32.6271186,13.6440678 C32.624718,13.0935937 32.2439926,12.6170729 31.7076271,12.4932203 L33.6237288,7.71186441 L33.8135593,7.71186441 C34.4688124,7.71186441 35,7.18067682 35,6.52542373 L35,1.18644068 C35,0.531187585 34.4688124,0 33.8135593,0 L33.8135593,1.05377101e-15 Z M27.8813559,22.8389831 L26.1016949,24.1737288 L24.3220339,22.8389831 L24.3220339,19.5762712 L27.8813559,19.5762712 L27.8813559,22.8389831 Z M31.440678,15.4237288 L26.1016949,15.4237288 C25.7740684,15.4237288 25.5084746,15.6893226 25.5084746,16.0169492 C25.5084746,16.3445757 25.7740684,16.6101695 26.1016949,16.6101695 L29.6610169,16.6101695 L29.6610169,18.3898305 L22.5423729,18.3898305 L22.5423729,16.6101695 L23.7288136,16.6101695 C24.0564401,16.6101695 24.3220339,16.3445757 24.3220339,16.0169492 C24.3220339,15.6893226 24.0564401,15.4237288 23.7288136,15.4237288 L20.7627119,15.4237288 L20.7627119,13.6440678 L31.440678,13.6440678 L31.440678,15.4237288 Z M30.4440678,12.4576271 L21.759322,12.4576271 L19.8610169,7.71186441 L32.3186441,7.71186441 L30.4440678,12.4576271 Z M33.8135593,6.52542373 L18.3898305,6.52542373 L18.3898305,1.18644068 L33.8135593,1.18644068 L33.8135593,6.52542373 Z" id="Shape"></path>
                            <path d="M20.1694915,3.55932203 L21.3559322,3.55932203 C21.6835587,3.55932203 21.9491525,3.29372824 21.9491525,2.96610169 C21.9491525,2.63847515 21.6835587,2.37288136 21.3559322,2.37288136 L20.1694915,2.37288136 C19.841865,2.37288136 19.5762712,2.63847515 19.5762712,2.96610169 C19.5762712,3.29372824 19.841865,3.55932203 20.1694915,3.55932203 Z" id="Shape"></path>
                            <path d="M23.7288136,3.55932203 L32.0338983,3.55932203 C32.3615248,3.55932203 32.6271186,3.29372824 32.6271186,2.96610169 C32.6271186,2.63847515 32.3615248,2.37288136 32.0338983,2.37288136 L23.7288136,2.37288136 C23.401187,2.37288136 23.1355932,2.63847515 23.1355932,2.96610169 C23.1355932,3.29372824 23.401187,3.55932203 23.7288136,3.55932203 Z" id="Shape"></path>
                            <path d="M11.7991525,13.3771186 C11.6510992,13.086255 11.2958962,12.9696212 11.0042373,13.1161017 C8.50084746,14.3677966 7.11864407,16.8711864 7.11864407,20.1694915 C7.11864407,20.497118 7.38423789,20.7627119 7.71186441,20.7627119 C8.03949092,20.7627119 8.30508475,20.497118 8.30508475,20.1694915 C8.30508475,17.3457627 9.45,15.2161017 11.5381356,14.1720339 C11.8289992,14.0239806 11.9456331,13.6687776 11.7991525,13.3771186 Z" id="Shape"></path>
                            <ellipse id="Oval" cx="13.0508475" cy="12.4576271" rx="1" ry="1"></ellipse>
                        </g>
                    </g>
                </g>
            </g>
        </g>
    </g>
</svg>