<?xml version="1.0" encoding="UTF-8"?>
<svg width="50px" height="50px" viewBox="0 0 50 50" version="1.1" xmlns="http://www.w3.org/2000/svg" xmlns:xlink="http://www.w3.org/1999/xlink">
    <!-- Generator: Sketch 43.1 (39012) - http://www.bohemiancoding.com/sketch -->
    <title>email</title>
    <desc>Created with Sketch.</desc>
    <defs></defs>
    <g id="Page-2" stroke="none" stroke-width="1" fill="none" fill-rule="evenodd">
        <g id="Контакты" transform="translate(-449.000000, -774.000000)">
            <g id="email" transform="translate(449.000000, 774.000000)">
                <circle id="Oval-2" fill="#F6F6F6" cx="25" cy="25" r="25"></circle>
                <g id="004-email-1" transform="translate(8.000000, 12.000000)" fill-rule="nonzero" fill="#225B94">
                    <path d="M31.9238281,0 L3.07617188,0 C1.38208984,0 0,1.38058594 0,3.07617188 L0,23.5839844 C0,25.2738281 1.3759375,26.6601562 3.07617188,26.6601562 L31.9238281,26.6601562 C33.6136719,26.6601562 35,25.2842188 35,23.5839844 L35,3.07617188 C35,1.38632813 33.6240625,0 31.9238281,0 Z M31.499043,2.05078125 L17.5652148,15.9846777 L3.51086914,2.05078125 L31.499043,2.05078125 Z M2.05078125,23.1593359 L2.05078125,3.49104492 L11.9272754,13.2828418 L2.05078125,23.1593359 Z M3.50088867,24.609375 L13.3836035,14.7266602 L16.8464844,18.1598047 C17.2473438,18.5572461 17.8942285,18.5559473 18.2934473,18.1566602 L21.6699219,14.7801855 L31.4991113,24.609375 L3.50088867,24.609375 Z M32.9492188,23.1592676 L23.1200293,13.3300781 L32.9492188,3.50082031 L32.9492188,23.1592676 Z" id="Shape"></path>
                </g>
            </g>
        </g>
    </g>
</svg>