<?xml version="1.0" encoding="UTF-8"?>
<svg width="71px" height="13px" viewBox="0 0 71 13" version="1.1" xmlns="http://www.w3.org/2000/svg" xmlns:xlink="http://www.w3.org/1999/xlink">
    <!-- Generator: Sketch 43.1 (39012) - http://www.bohemiancoding.com/sketch -->
    <title>line</title>
    <desc>Created with Sketch.</desc>
    <defs></defs>
    <g id="Symbols" stroke="none" stroke-width="1" fill="none" fill-rule="evenodd">
        <g id="Заголовок-2" transform="translate(-685.000000, -78.000000)" fill-rule="nonzero" fill="#229494">
            <g id="line" transform="translate(720.355339, 84.355339) rotate(45.000000) translate(-720.355339, -84.355339) translate(695.355339, 59.355339)">
                <path d="M48.5351562,4.54747351e-13 L42.6757812,4.54747351e-13 C41.8661133,4.54747351e-13 41.2109375,0.655175781 41.2109375,1.46484375 L41.2109375,6.71767578 L6.91298828,41.015625 L1.46484375,41.015625 C0.655175781,41.015625 -1.13686838e-13,41.6708008 -1.13686838e-13,42.4804688 L-1.13686838e-13,48.5351563 C-1.13686838e-13,49.3448242 0.655175781,50 1.46484375,50 L7.51953125,50 C8.32919922,50 8.984375,49.3448242 8.984375,48.5351563 L8.984375,43.0870117 L43.2823242,8.7890625 L48.5351562,8.7890625 C49.3448242,8.7890625 50,8.13388672 50,7.32421875 L50,1.46484375 C50,0.655175781 49.3448242,4.54747351e-13 48.5351562,4.54747351e-13 Z" id="Shape"></path>
            </g>
        </g>
    </g>
</svg>