<?xml version="1.0" encoding="UTF-8"?>
<svg width="50px" height="50px" viewBox="0 0 50 50" version="1.1" xmlns="http://www.w3.org/2000/svg" xmlns:xlink="http://www.w3.org/1999/xlink">
    <!-- Generator: Sketch 43.1 (39012) - http://www.bohemiancoding.com/sketch -->
    <title>Group 2</title>
    <desc>Created with Sketch.</desc>
    <defs></defs>
    <g id="Symbols" stroke="none" stroke-width="1" fill="none" fill-rule="evenodd">
        <g id="низ" transform="translate(-996.000000, -166.000000)">
            <g id="Group-11">
                <g id="Group-3">
                    <g id="Group-2" transform="translate(996.000000, 166.000000)">
                        <g id="низ-иконка" transform="translate(0.000000, 0.000000)" fill="#229494">
                            <ellipse id="Oval" cx="25" cy="25" rx="25" ry="25"></ellipse>
                        </g>
                        <g id="002-phone" transform="translate(7.000000, 8.000000)" fill-rule="nonzero" fill="#942222">
                            <path d="M25.1063938,34.9332066 C23.9787524,34.9332066 22.8606628,34.7338499 21.7673392,34.3366374 C16.9507115,32.5869103 12.4798538,29.7371053 8.83794347,26.0952632 C5.19603314,22.4534211 2.34622807,17.9824951 0.596569201,13.1658674 C0.0343177388,11.6179532 -0.131608187,10.0200975 0.103567251,8.41651072 C0.323869396,6.91444444 0.905701754,5.45624756 1.78622807,4.19952242 C2.67064327,2.93727096 3.8497271,1.88740741 5.19596491,1.16346004 C6.63157895,0.391481481 8.19852827,0 9.85342105,0 C10.3681189,0 10.8129532,0.359619883 10.9208187,0.86285575 L12.6342495,8.85888889 C12.7118226,9.22096491 12.6005458,9.59770955 12.3387622,9.8595614 L9.41097466,12.7872807 C12.1729045,18.2785283 16.6545419,22.7601657 22.1457895,25.5220955 L25.0735088,22.594308 C25.3353606,22.3325244 25.7121735,22.221384 26.0741813,22.2988207 L34.0702144,24.0122515 C34.5735185,24.120117 34.9330702,24.5649513 34.9330702,25.0796491 C34.9330702,26.7345419 34.5415887,28.3015595 33.7695419,29.7371735 C33.0455945,31.0834113 31.995731,32.2624951 30.7334795,33.1469103 C29.4768226,34.0274366 28.0186257,34.609269 26.5164912,34.8295712 C26.0457992,34.8986842 25.5751754,34.9331384 25.1063938,34.9332066 L25.1063938,34.9332066 Z M8.98121832,2.23099415 C6.79832359,2.47196881 4.86083821,3.61612086 3.57423002,5.4524269 C2.1274269,7.51729045 1.79004873,10.0570078 2.64860624,12.4204971 C6.0124269,21.6805556 13.2526511,28.9207797 22.5127096,32.2846004 C24.8761306,33.1431579 27.415848,32.805848 29.4807797,31.3589766 C31.3170858,30.0723684 32.4612378,28.134883 32.7022125,25.9519883 L26.1974659,24.5581287 L23.1398441,27.6157505 C22.8144737,27.9411209 22.3201072,28.0275634 21.9037914,27.8318908 C15.409347,24.7808187 10.1523879,19.5238596 7.10131579,13.0294152 C6.9057115,12.6130312 6.99208577,12.1186647 7.31745614,11.7933626 L10.375078,8.73574074 L8.98121832,2.23099415 Z" id="Shape"></path>
                        </g>
                    </g>
                </g>
            </g>
        </g>
    </g>
</svg>