<?xml version="1.0" encoding="UTF-8"?>
<svg width="54px" height="54px" viewBox="0 0 54 54" version="1.1" xmlns="http://www.w3.org/2000/svg" xmlns:xlink="http://www.w3.org/1999/xlink">
    <!-- Generator: Sketch 43.1 (39012) - http://www.bohemiancoding.com/sketch -->
    <title>phone-svgrepo-com</title>
    <desc>Created with Sketch.</desc>
    <defs></defs>
    <g id="Page-1" stroke="none" stroke-width="1" fill="none" fill-rule="evenodd">
        <g id="phone-svgrepo-com" fill-rule="nonzero" fill="#229494">
            <path d="M53.364,40.908 C51.356,37.112 44.383,32.996 44.076,32.816 C43.18,32.306 42.245,32.036 41.37,32.036 C40.069,32.036 39.004,32.632 38.359,33.716 C37.339,34.936 36.074,36.362 35.767,36.583 C33.391,38.195 31.531,38.012 29.473,35.954 L17.987,24.467 C15.942,22.422 15.754,20.539 17.355,18.176 C17.579,17.867 19.005,16.601 20.225,15.58 C21.003,15.117 21.537,14.429 21.771,13.585 C22.082,12.462 21.853,11.141 21.119,9.854 C20.946,9.558 16.828,2.584 13.034,0.577 C12.326,0.202 11.528,0.004 10.728,0.004 C9.41,0.004 8.17,0.518 7.238,1.449 L4.7,3.986 C0.686,7.999 -0.767,12.548 0.379,17.506 C1.335,21.638 4.121,26.035 8.661,30.574 L23.366,45.279 C29.112,51.025 34.59,53.939 39.648,53.939 L39.649,53.939 C43.369,53.939 46.837,52.358 49.954,49.241 L52.491,46.704 C54.033,45.163 54.383,42.833 53.364,40.908 Z" id="Shape"></path>
        </g>
    </g>
</svg>