<?xml version="1.0" encoding="UTF-8"?>
<svg width="50px" height="50px" viewBox="0 0 50 50" version="1.1" xmlns="http://www.w3.org/2000/svg" xmlns:xlink="http://www.w3.org/1999/xlink">
    <!-- Generator: Sketch 43.1 (39012) - http://www.bohemiancoding.com/sketch -->
    <title>Group 6</title>
    <desc>Created with Sketch.</desc>
    <defs></defs>
    <g id="Page-1" stroke="none" stroke-width="1" fill="none" fill-rule="evenodd">
        <g id="Главная" transform="translate(-260.000000, -1063.000000)">
            <g id="Group-10" transform="translate(135.000000, 1063.000000)">
                <g id="Group-7">
                    <g id="Group-6" transform="translate(125.000000, 0.000000)">
                        <g id="низ-иконка" fill="#229494">
                            <ellipse id="Oval" cx="25" cy="25" rx="25" ry="25"></ellipse>
                        </g>
                        <g id="quality" transform="translate(8.000000, 8.000000)" fill-rule="nonzero" fill="#EDF7F8">
                            <path d="M17.5,1.1608971e-15 C11.2304049,0.00130725715 5.44450436,3.36952469 2.34759776,8.82085419 C-0.749308842,14.2721837 -0.68006707,20.9667143 2.52893154,26.3528216 C2.36596791,26.5503167 2.35171607,26.8312815 2.49385892,27.0442531 L3.15174274,28.0310788 L0.354647303,29.7093361 C0.148829281,29.8328056 0.0401344617,30.0701384 0.0810961819,30.3066292 C0.122057902,30.54312 0.304241376,30.7300709 0.539595436,30.7771266 L2.95089212,31.2593568 L2.78947095,34.242417 C2.77784416,34.4570629 2.88569958,34.6605836 3.06984667,34.7714795 C3.25399376,34.8823753 3.48432706,34.8825165 3.66860996,34.7718465 L8.10533195,32.1069087 C13.8329254,35.7703306 21.1675829,35.7703306 26.8951763,32.1069087 L31.3318983,34.7718465 C31.5161812,34.8825165 31.7465145,34.8823753 31.9306616,34.7714795 C32.1148087,34.6605836 32.2226641,34.4570629 32.2110373,34.242417 L32.0496162,31.2593568 L34.4609129,30.7771266 C34.6962669,30.7300709 34.8784504,30.54312 34.9194121,30.3066292 C34.9603738,30.0701384 34.851679,29.8328056 34.645861,29.7093361 L31.8485477,28.0310788 L32.5064315,27.0442531 C32.648618,26.8311955 32.6343058,26.550117 32.4712137,26.3526037 C35.6813003,20.9666475 35.7510626,14.2715328 32.6539029,8.81985572 C29.5567432,3.36817868 23.7700224,0.000198613748 17.5,0 L17.5,1.1608971e-15 Z M5.4728527,26.1684544 C13.075722,22.519155 21.924278,22.519155 29.5271473,26.1684544 L31.1682261,26.9563174 L29.4920747,29.4705809 C21.8731417,26.0035403 13.1265679,26.0035403 5.50763485,29.4705809 L3.83155602,26.9563174 L5.4728527,26.1684544 Z M17.5,22.2696577 C14.2183629,22.2742608 10.9610723,22.8330919 7.86556017,23.9225726 C6.566948,22.0058956 5.87565843,19.7425548 5.88174274,17.4273859 C5.88174274,11.0210062 11.0936203,5.80912863 17.5,5.80912863 C23.9063797,5.80912863 29.1182573,11.0210062 29.1182573,17.4273859 C29.1238006,19.7424836 28.4324204,22.0056562 27.1340768,23.9224274 C24.0386729,22.8330296 20.7815075,22.2742481 17.5,22.2696577 L17.5,22.2696577 Z M21.5206432,28.3285062 C18.9254135,29.2846884 16.0743686,29.2846884 13.479139,28.3285062 C16.1450728,27.9332923 18.8547094,27.9332923 21.5206432,28.3285062 Z M4.00873444,33.2123133 L4.13813278,30.8198237 C4.15377903,30.5314509 3.95520915,30.2753734 3.67202282,30.2187241 L2.24087137,29.9325519 L3.7969917,28.9988797 L4.81751037,30.5297303 C4.97766375,30.769919 5.28989754,30.8560578 5.55054979,30.7319606 C5.93937414,30.5467946 6.33277317,30.3709959 6.73074689,30.2045643 L7.38427386,31.1848548 L4.00873444,33.2123133 Z M8.73417012,31.1304668 C8.72130506,31.1014692 8.70610279,31.073566 8.68871369,31.0470332 L7.83651452,29.7690249 C9.02315051,29.330518 10.2380967,28.9728027 11.473029,28.6983299 C15.2390738,30.710566 19.7609262,30.710566 23.526971,28.6983299 C24.7619322,28.9726302 25.976906,29.3302251 27.1635581,29.7686618 L26.3113589,31.0466701 C26.2939662,31.0731629 26.2787868,31.1010443 26.2659751,31.1300311 C20.9214623,34.5467181 14.0787555,34.5467181 8.73424274,31.1300311 L8.73417012,31.1304668 Z M32.7591286,29.932334 L31.3279772,30.2185062 C31.0447908,30.2751556 30.846221,30.5312331 30.8618672,30.8196058 L30.9912656,33.2120954 L27.6157988,31.1848548 L28.2693257,30.2045643 C28.6669122,30.3713831 29.0603112,30.5471819 29.4495228,30.7319606 C29.7102685,30.8562704 30.0227397,30.7701088 30.1829253,30.5297303 L31.203444,28.9988797 L32.7591286,29.932334 Z M31.4472095,25.8011722 L30.0299274,25.1208506 C29.4462068,24.8407054 28.8529011,24.5806259 28.2500104,24.340612 C29.5806544,22.280849 30.2857914,19.8795696 30.280083,17.4273859 C30.280083,10.3804046 24.5469813,4.6473029 17.5,4.6473029 C10.4530187,4.6473029 4.71991701,10.3804046 4.71991701,17.4273859 C4.71353507,19.8797185 5.41850639,22.2812722 6.74940871,24.3410477 C6.14738935,24.58111 5.55437414,24.8411169 4.97036307,25.1210685 L3.55344398,25.8011722 C-0.543841076,18.9734267 0.904258533,10.1832046 6.97518939,5.03056909 C13.0461203,-0.122066367 21.9548237,-0.122066367 28.0257546,5.03056909 C34.0966855,10.1832046 35.5447851,18.9734267 31.4475,25.8011722 L31.4472095,25.8011722 Z" id="Shape"></path>
                            <path d="M23.0186722,12.780083 L19.8236515,12.780083 C19.5029714,12.7797228 19.2430987,12.5198501 19.2427386,12.1991701 L19.2427386,10.4564315 C19.2416182,9.49440806 18.4620235,8.71481335 17.5,8.71369295 L16.3381743,8.71369295 C16.017345,8.71369295 15.7572614,8.97377649 15.7572614,9.29460581 L15.7572614,10.5750104 C15.7597025,11.4613769 15.4073831,12.3118697 14.7788589,12.9368568 L14.3547925,13.3609959 L11.1099585,13.3609959 C10.7891292,13.3609959 10.5290456,13.6210794 10.5290456,13.9419087 L10.5290456,20.3319502 C10.5290456,20.6527795 10.7891292,20.9128631 11.1099585,20.9128631 L21.2759336,20.9128631 C21.753462,20.9129813 22.200533,20.6783403 22.4717026,20.2852749 C22.7428722,19.8922095 22.8034833,19.3909558 22.6338174,18.9445851 C23.2171396,18.5756464 23.4600249,17.8469907 23.2147303,17.2018465 C23.7980525,16.8329078 24.0409377,16.1042521 23.7956432,15.4591079 C24.341443,15.1132645 24.5931093,14.4484176 24.4131303,13.8278432 C24.2331512,13.2072688 23.6648185,12.7802381 23.0186722,12.780083 Z M11.6908714,14.5228216 L14.0145228,14.5228216 L14.0145228,19.7510373 L11.6908714,19.7510373 L11.6908714,14.5228216 Z M23.0186722,14.5228216 L22.4377593,14.5228216 C22.11693,14.5228216 21.8568465,14.7829051 21.8568465,15.1037344 C21.8568465,15.4245638 22.11693,15.6846473 22.4377593,15.6846473 C22.598174,15.6846473 22.7282158,15.8146891 22.7282158,15.9751037 C22.7282158,16.1355184 22.598174,16.2655602 22.4377593,16.2655602 L21.8568465,16.2655602 C21.5360172,16.2655602 21.2759336,16.5256437 21.2759336,16.846473 C21.2759336,17.1673023 21.5360172,17.4273859 21.8568465,17.4273859 C22.0172611,17.4273859 22.1473029,17.5574277 22.1473029,17.7178423 C22.1473029,17.878257 22.0172611,18.0082988 21.8568465,18.0082988 L21.2759336,18.0082988 C20.9551043,18.0082988 20.6950207,18.2683823 20.6950207,18.5892116 C20.6950207,18.9100409 20.9551043,19.1701245 21.2759336,19.1701245 C21.4363483,19.1701245 21.56639,19.3001663 21.56639,19.4605809 C21.56639,19.6209956 21.4363483,19.7510373 21.2759336,19.7510373 L15.1763485,19.7510373 L15.1763485,14.1824793 L15.6004876,13.7584855 C16.4475111,12.9159942 16.9223169,11.7696777 16.9190871,10.5750104 L16.9190871,9.87551867 L17.5,9.87551867 C17.82068,9.87587883 18.0805527,10.1357515 18.0809129,10.4564315 L18.0809129,12.1991701 C18.0820333,13.1611936 18.861628,13.9407883 19.8236515,13.9419087 L23.0186722,13.9419087 C23.1790869,13.9419087 23.3091286,14.0719505 23.3091286,14.2323651 C23.3091286,14.3927798 23.1790869,14.5228216 23.0186722,14.5228216 L23.0186722,14.5228216 Z" id="Shape"></path>
                            <path d="M16.295332,24.9937759 L16.8326763,25.384222 L16.6273963,26.0159647 C16.5981693,26.1057416 16.6301012,26.2041266 16.7064799,26.259628 C16.7828585,26.3151295 16.8862956,26.3151121 16.9626556,26.2595851 L17.5,25.869139 L18.0373444,26.2595851 C18.1137044,26.3151121 18.2171415,26.3151295 18.2935201,26.259628 C18.3698988,26.2041266 18.4018307,26.1057416 18.3726037,26.0159647 L18.1673237,25.384222 L18.704668,24.9937759 C18.7810119,24.9383055 18.8129589,24.8399873 18.7838026,24.7502362 C18.7546463,24.6604851 18.6710175,24.5997126 18.5766494,24.5996992 L17.9124481,24.5996992 L17.707168,23.9679564 C17.6779927,23.8782198 17.5943603,23.817469 17.5,23.817469 C17.4056397,23.817469 17.3220073,23.8782198 17.292832,23.9679564 L17.0875519,24.5996992 L16.4233506,24.5996992 C16.3289825,24.5997126 16.2453537,24.6604851 16.2161974,24.7502362 C16.1870411,24.8399873 16.2189881,24.9383055 16.295332,24.9937759 L16.295332,24.9937759 Z" id="Shape"></path>
                            <path d="M12.9428838,25.4137033 L13.4802282,25.8041494 L13.2749481,26.4358921 C13.2457212,26.525669 13.2776531,26.6240539 13.3540317,26.6795554 C13.4304103,26.7350569 13.5338475,26.7350395 13.6102075,26.6795124 L14.1475519,26.2890664 L14.6848963,26.6795124 C14.7612563,26.7350395 14.8646934,26.7350569 14.941072,26.6795554 C15.0174506,26.6240539 15.0493825,26.525669 15.0201556,26.4358921 L14.8148755,25.8041494 L15.3522199,25.4137033 C15.4285638,25.3582329 15.4605108,25.2599147 15.4313545,25.1701636 C15.4021982,25.0804125 15.3185694,25.01964 15.2242012,25.0196266 L14.5599274,25.0196266 L14.3547199,24.3878838 C14.3255796,24.2980902 14.2419192,24.2372846 14.1475156,24.2372846 C14.0531119,24.2372846 13.9694515,24.2980902 13.9403112,24.3878838 L13.7351037,25.0196266 L13.0709025,25.0196266 C12.9765343,25.01964 12.8929055,25.0804125 12.8637492,25.1701636 C12.834593,25.2599147 12.86654,25.3582329 12.9428838,25.4137033 L12.9428838,25.4137033 Z" id="Shape"></path>
                            <path d="M19.6477075,25.4137033 L20.1850519,25.8041494 L19.9797718,26.4358921 C19.9505449,26.525669 19.9824768,26.6240539 20.0588554,26.6795554 C20.135234,26.7350569 20.2386711,26.7350395 20.3150311,26.6795124 L20.8523755,26.2890664 L21.3897199,26.6795124 C21.4660799,26.7350395 21.5695171,26.7350569 21.6458957,26.6795554 C21.7222743,26.6240539 21.7542062,26.525669 21.7249793,26.4358921 L21.5196992,25.8041494 L22.0570436,25.4137033 C22.1333982,25.358225 22.1653423,25.259888 22.1361669,25.1701291 C22.1069915,25.0803701 22.0233338,25.0196085 21.9289523,25.0196266 L21.264751,25.0196266 L21.0595436,24.3878838 C21.0304033,24.2980902 20.9467429,24.2372846 20.8523392,24.2372846 C20.7579356,24.2372846 20.6742752,24.2980902 20.6451349,24.3878838 L20.4399274,25.0196266 L19.7757261,25.0196266 C19.681358,25.01964 19.5977292,25.0804125 19.5685729,25.1701636 C19.5394166,25.2599147 19.5713636,25.3582329 19.6477075,25.4137033 Z" id="Shape"></path>
                        </g>
                    </g>
                </g>
            </g>
        </g>
    </g>
</svg>